<svg xmlns="http://www.w3.org/2000/svg" width="256" height="256" viewBox="0 0 256 256">
  <defs>
    <linearGradient id="g" x1="0" y1="0" x2="1" y2="1">
      <stop offset="0" stop-color="#22d3ee"/>
      <stop offset="1" stop-color="#14b8a6"/>
    </linearGradient>
  </defs>
  <rect width="256" height="256" rx="48" fill="#0b1220"/>
  <g transform="translate(20,20)">
    <path d="M70,72c0-20,16-36,36-36c18,0,33,12,36,29c13,2,24,13,24,27c0,15-13,28-28,28H92c-12,0-22-10-22-22v-4
             c-9,1-18-5-20-14c-3-12,7-23,19-23c0,0,1,0,1,0z" fill="url(#g)"/>
    <circle cx="124" cy="82" r="6" fill="#0b1220" opacity="0.95"/>
    <path d="M180,132c-10,18-30,34-58,40" stroke="url(#g)" stroke-width="10" fill="none" stroke-linecap="round"/>
  </g>
</svg>
